<svg width="44" height="42" viewBox="0 0 44 42" fill="none" xmlns="http://www.w3.org/2000/svg">
<path d="M25.1717 36.6356C24.8493 37.1515 24.3867 37.5796 23.8301 37.8773C23.2735 38.1749 22.6424 38.3316 22 38.3316C21.3576 38.3316 20.7265 38.1749 20.1699 37.8773C19.6133 37.5796 19.1507 37.1515 18.8283 36.6356M33 14.5092C33 11.8008 31.8411 9.20327 29.7782 7.28812C27.7153 5.37297 24.9174 4.29704 22 4.29704C19.0826 4.29704 16.2847 5.37297 14.2218 7.28812C12.1589 9.20327 11 11.8008 11 14.5092C11 26.4234 5.5 29.8275 5.5 29.8275H38.5C38.5 29.8275 33 26.4234 33 14.5092Z" stroke="white" stroke-width="2" stroke-linecap="round" stroke-linejoin="round"/>
</svg>
