<?xml version="1.0" encoding="UTF-8"?>
<svg xmlns="http://www.w3.org/2000/svg" width="24" height="24" viewBox="0 0 24 24" fill="none" stroke="white" stroke-width="2" stroke-linecap="round" stroke-linejoin="round">
  <path d="M13 4v4.566a1 1 0 0 0 1.5.866l3.915-2.265a1 1 0 0 1 1.5.866v1.934a1 1 0 0 1-.5.866l-9.83 5.68a1 1 0 0 1-1 0l-3.582-2.068"/>
  <path d="M8 16l-4-2v-3c0-.366.105-.7.287-.985L9 4.5c.5-.5 1.5-.866 2.5-1v.5"/>
  <path d="M11 6a1 1 0 1 0 0-2 1 1 0 0 0 0 2z"/>
  <line x1="7" y1="13" x2="12" y2="19"/>
  <line x1="12" y1="19" x2="18" y2="9"/>
</svg> 